<?xml version="1.0" encoding="UTF-8" standalone="no"?>
<svg width="64px" height="38px" viewBox="0 0 64 38" version="1.1" xmlns="http://www.w3.org/2000/svg" xmlns:xlink="http://www.w3.org/1999/xlink" xmlns:sketch="http://www.bohemiancoding.com/sketch/ns">
    <!-- Generator: Sketch 3.0.3 (7891) - http://www.bohemiancoding.com/sketch -->
    <title>Cloud</title>
    <desc>Created with Sketch.</desc>
    <defs></defs>
    <g id="Page-1" stroke="none" stroke-width="1" fill="none" fill-rule="evenodd" sketch:type="MSPage">
        <g id="Cloud" sketch:type="MSLayerGroup" transform="translate(1.000000, 1.000000)" stroke="#6B6C6E" stroke-width="2">
            <path d="M14.7,8.9 C17.6,3.6 23.3,0 29.8,0 C39.3,0 47,7.6 47,17.1 C47,18.4 46.8,19.7 46.6,20.9" id="Shape" sketch:type="MSShapeGroup"></path>
            <path d="M47.4,14.5 C48.5,14.1 49.7,14 50.9,14 C57,14 62,18.9 62,25 C62,31.1 57,36 50.9,36 L13.6,36 C6.1,36 0,29.9 0,22.5 C0,15 6.1,9 13.6,9 C17.1,9 20.3,10.3 22.7,12.4" id="Shape" sketch:type="MSShapeGroup"></path>
        </g>
    </g>
</svg>