<?xml version="1.0" encoding="UTF-8" standalone="no"?>
<svg width="64px" height="47px" viewBox="0 0 64 47" version="1.1" xmlns="http://www.w3.org/2000/svg" xmlns:xlink="http://www.w3.org/1999/xlink" xmlns:sketch="http://www.bohemiancoding.com/sketch/ns">
    <!-- Generator: Sketch 3.0.3 (7891) - http://www.bohemiancoding.com/sketch -->
    <title>Weather-cloud-sun</title>
    <desc>Created with Sketch.</desc>
    <defs></defs>
    <g id="Page-1" stroke="none" stroke-width="1" fill="none" fill-rule="evenodd" sketch:type="MSPage">
        <g id="Weather-cloud-sun" sketch:type="MSLayerGroup" transform="translate(1.000000, 0.000000)" stroke="#6B6C6E" stroke-width="2">
            <g id="Group" transform="translate(0.000000, 10.000000)" sketch:type="MSShapeGroup">
                <path d="M13.7,8.9 C16.6,3.6 22.3,0 28.8,0 C38.3,0 46,7.6 46,17.1 C46,18.4 45.8,19.7 45.6,20.9" id="Shape"></path>
                <path d="M46.4,14.5 C47.5,14.1 48.7,14 49.9,14 C56,14 61,18.9 61,25 C61,31.1 56,36 49.9,36 L12.6,36 C5.1,36 0,29.9 0,22.5 C0,15 5.1,9 12.6,9 C16.1,9 19.3,10.3 21.7,12.4" id="Shape"></path>
            </g>
            <path d="M36.2,11 C38.2,8.6 41.3,7 44.7,7 C50.8,7 55.7,11.9 55.7,18 C55.7,20.2 55,22.3 53.9,24" id="Shape" sketch:type="MSShapeGroup"></path>
            <path d="M45,0 L45,4" id="Shape" sketch:type="MSShapeGroup"></path>
            <path d="M32,5.3 L34.8,8.1" id="Shape" sketch:type="MSShapeGroup"></path>
            <path d="M63,18 L58.2,18" id="Shape" sketch:type="MSShapeGroup"></path>
            <path d="M57.5,5.3 L54.6,8.1" id="Shape" sketch:type="MSShapeGroup"></path>
        </g>
    </g>
</svg>